<mxfile host="app.diagrams.net" modified="2023-06-02T08:27:45.783Z" agent="Mozilla/5.0 (Windows NT 10.0; Win64; x64) AppleWebKit/537.36 (KHTML, like Gecko) Chrome/114.0.0.0 Safari/537.36" etag="4bWkL5S530uniG_czIuK" version="21.3.5" type="github">
  <diagram name="Trang-1" id="pGlWDRRR4ceFcZ0pKpWa">
    <mxGraphModel dx="1114" dy="620" grid="0" gridSize="10" guides="1" tooltips="1" connect="1" arrows="1" fold="1" page="0" pageScale="1" pageWidth="827" pageHeight="1169" math="0" shadow="0">
      <root>
        <mxCell id="0" />
        <mxCell id="1" parent="0" />
      </root>
    </mxGraphModel>
  </diagram>
</mxfile>
